P3
# CREATOR: GIMP PNM Filter Version 1.1
18 18
255
0
0
0
0
0
0
0
0
0
0
0
0
0
0
0
0
0
0
0
0
0
0
0
0
0
0
0
1
1
1
0
0
0
0
0
0
3
3
3
0
0
0
0
0
0
0
0
0
0
0
0
0
0
0
0
0
0
0
0
0
0
0
0
0
0
0
0
0
0
0
0
0
0
0
0
0
0
0
4
4
4
2
2
2
0
0
0
1
1
1
20
20
20
0
0
0
0
0
0
0
0
0
0
0
0
0
0
0
0
0
0
0
0
0
0
0
0
0
0
0
0
0
0
0
0
0
0
0
0
0
0
0
9
9
9
0
0
0
2
2
2
49
49
49
252
252
252
21
21
21
3
3
3
0
0
0
0
0
0
0
0
0
0
0
0
0
0
0
0
0
0
0
0
0
0
0
0
0
0
0
0
0
0
3
3
3
4
4
4
0
0
0
0
0
0
227
227
227
18
18
18
144
144
144
0
0
0
0
0
0
0
0
0
0
0
0
0
0
0
0
0
0
0
0
0
0
0
0
0
0
0
0
0
0
0
0
0
12
11
11
0
0
0
5
5
5
48
48
48
178
178
178
0
0
0
245
245
245
0
0
0
1
1
1
0
0
0
0
0
0
0
0
0
0
0
0
0
0
0
0
0
0
0
0
0
0
0
0
3
3
3
7
7
7
0
0
0
0
0
0
188
188
188
0
0
0
0
0
0
80
80
80
117
117
117
6
6
6
0
0
0
0
0
0
0
0
0
0
0
0
0
0
0
0
0
0
0
0
0
0
0
0
16
14
15
0
0
0
2
2
2
4
4
4
214
214
214
1
1
1
0
0
0
0
0
0
234
234
234
0
0
0
0
0
0
0
0
0
0
0
0
0
0
0
0
0
0
0
0
0
0
0
0
5
5
5
13
13
13
0
0
0
5
5
5
171
171
171
50
50
50
3
3
3
0
0
0
6
6
6
139
139
139
85
85
85
4
4
4
0
0
0
0
0
0
0
0
0
0
0
0
0
0
0
0
0
0
21
20
20
0
0
0
0
0
0
0
0
0
216
216
216
0
0
0
0
0
0
0
0
0
0
0
0
0
0
0
230
230
230
0
0
0
0
0
0
0
0
0
0
0
0
0
0
0
0
0
0
6
5
5
22
22
22
0
0
0
0
0
0
131
131
131
224
224
224
212
212
212
210
210
210
210
210
210
210
210
210
211
211
211
248
248
248
29
29
29
0
0
0
0
0
0
0
0
0
0
0
0
0
0
0
34
32
33
2
2
2
1
1
1
0
0
0
252
252
252
0
0
0
0
0
0
0
0
0
0
0
0
0
0
0
0
0
0
23
23
23
220
220
220
0
0
0
0
0
0
0
0
0
0
0
0
2
2
2
42
40
40
0
0
0
0
0
0
70
70
70
119
119
119
0
0
0
0
0
0
0
0
0
0
0
0
0
0
0
0
0
0
0
0
0
218
218
218
11
11
11
0
0
0
0
0
0
0
0
0
65
62
63
13
12
12
1
1
1
0
0
0
62
62
62
6
6
6
1
1
1
0
0
0
0
0
0
0
0
0
0
0
0
0
0
0
1
1
1
15
15
15
34
34
34
2
2
2
0
0
0
23
21
21
113
108
109
0
0
0
2
2
2
2
2
2
0
0
0
1
1
1
1
1
1
1
1
1
1
0
1
0
0
0
0
0
0
0
0
0
0
0
0
0
0
0
0
0
0
43
41
42
113
109
110
189
183
185
146
140
142
96
93
93
42
41
41
30
29
29
23
22
23
18
17
17
15
14
14
12
11
12
10
9
10
9
8
8
7
7
7
6
5
6
5
5
5
4
5
4
4
4
4
39
37
37
205
202
202
254
254
255
157
153
155
66
65
65
44
42
42
34
33
33
27
26
25
22
21
21
18
17
17
15
15
15
14
13
13
12
12
12
11
10
10
10
10
10
9
9
9
9
8
9
8
8
8
0
0
0
138
137
137
99
98
98
0
0
0
3
3
3
2
2
2
1
1
1
1
1
1
1
1
1
1
1
1
1
1
1
1
1
1
0
0
0
0
0
0
0
0
0
0
0
0
0
0
0
0
0
0
1
1
0
135
130
132
0
0
0
1
1
1
0
0
0
0
0
0
0
0
0
0
0
0
0
0
0
0
0
0
0
0
0
0
0
0
0
0
0
0
0
0
0
0
0
0
0
0
0
0
0
0
0
0
